# xmcd CD database file
#
# Track frame offsets:
#	150
#	19058
#	34271
#	52509
#	69593
#	88946
#	105343
#	130000
#	147319
#	161341
#	175630
#	192626
#	214051
#	228370
#	252948
#
# Disc length: 3789 seconds
#
# Revision: 0
# Processed by: cddbd v1.5.2PL0 Copyright (c) Steve Scherf et al.
# Submitted via: CDex 1.51
#
DISCID=c40ecb0f
DTITLE=Nina Simone - The Nina Simone Collection [CD1] 
DYEAR=2006
DGENRE=Jazz
TTITLE0=I Love You Porgy
TTITLE1=Love Me or Leave Me
TTITLE2=Mood indigo
TTITLE3=You'll Never Walk Alone
TTITLE4=Little Girl Blue
TTITLE5=My Baby Just Cares For Me
TTITLE6=Good Bait
TTITLE7=Plain Gold Ring
TTITLE8=Central park Blues
TTITLE9=African Mailman
TTITLE10=See Line Woman
TTITLE11=When I Was A Young Girl
TTITLE12=Please Read me (Live)
TTITLE13=For A While (Live)
TTITLE14=House Of The Rising Sun (Live)
EXTD=YEAR: 2006
EXTT0=
EXTT1=
EXTT2=
EXTT3=
EXTT4=
EXTT5=
EXTT6=
EXTT7=
EXTT8=
EXTT9=
EXTT10=
EXTT11=
EXTT12=
EXTT13=
EXTT14=
PLAYORDER=
